<?xml version="1.0" standalone="no"?>
<!DOCTYPE svg PUBLIC "-//W3C//DTD SVG 20010904//EN"
 "http://www.w3.org/TR/2001/REC-SVG-20010904/DTD/svg10.dtd">
<svg version="1.0" xmlns="http://www.w3.org/2000/svg"
 width="300.000000pt" height="115.000000pt" viewBox="0 0 300.000000 115.000000"
 preserveAspectRatio="xMidYMid meet">
<metadata>
Created by potrace 1.10, written by Peter Selinger 2001-2011
</metadata>
<g transform="translate(0.000000,115.000000) scale(0.100000,-0.100000)"
fill="#000000" stroke="none">
<path d="M517 1098 c-9 -7 -19 -29 -21 -48 -3 -19 -7 -44 -9 -55 -3 -11 -10
-53 -17 -92 -7 -40 -15 -73 -17 -73 -2 0 -19 7 -39 15 -19 8 -37 14 -39 15 -3
0 -6 0 -7 1 -2 0 -10 2 -18 4 -8 1 -55 15 -105 30 -104 33 -157 37 -201 19
-31 -13 -32 -14 -23 -56 4 -24 24 -128 44 -233 19 -104 40 -206 45 -226 13
-47 47 -69 106 -69 l47 0 -5 -38 -5 -37 1243 0 1244 0 0 38 c0 36 1 37 35 37
82 0 110 37 131 178 5 30 11 63 17 87 4 17 9 45 23 125 1 8 5 29 8 45 2 17 10
52 16 79 8 35 8 52 -1 62 -6 7 -14 13 -17 12 -4 -1 -24 1 -44 5 -29 6 -70 -2
-191 -38 -85 -25 -162 -48 -171 -51 -10 -4 -15 0 -15 13 0 18 -5 44 -16 93 -3
14 -8 39 -11 55 -11 66 -25 103 -40 109 -9 3 -446 6 -973 6 -750 0 -961 -3
-974 -12z m1937 -19 c10 -10 21 -62 42 -194 4 -27 14 -55 22 -61 16 -12 113 7
252 51 62 19 96 24 127 20 24 -3 45 -9 47 -13 2 -4 -8 -73 -24 -152 -15 -80
-33 -185 -40 -235 -11 -75 -17 -94 -41 -117 -21 -21 -37 -28 -68 -28 -37 0
-41 -3 -49 -33 l-8 -32 -1213 0 c-1070 0 -1214 2 -1218 15 -11 36 -22 45 -67
50 -57 7 -83 32 -90 85 -2 22 -12 76 -21 120 -9 44 -21 103 -25 130 -15 87
-29 159 -36 181 -5 20 -1 22 43 28 31 4 67 1 103 -10 158 -45 237 -64 260 -62
21 3 26 10 37 68 7 36 17 73 23 82 5 10 10 35 10 56 0 21 5 43 10 48 11 11
1913 14 1924 3z"/>
<path d="M1466 515 l-26 -25 20 -20 c12 -12 31 -20 43 -18 32 4 23 22 -15 28
-25 4 -29 7 -15 12 9 4 17 15 17 24 0 12 5 10 21 -10 11 -14 24 -26 29 -26 16
0 0 28 -25 44 -21 14 -25 13 -49 -9z"/>
<path d="M315 202 c-5 -4 -11 -11 -12 -17 -5 -32 -13 -73 -17 -92 -16 -62 -16
-63 8 -63 19 0 30 14 62 83 21 45 40 84 42 88 4 8 -72 10 -83 1z m26 -65 c-10
-23 -21 -49 -24 -57 -3 -8 -3 5 0 30 7 52 20 83 33 75 5 -3 1 -24 -9 -48z"/>
<path d="M2592 203 c2 -5 22 -45 43 -90 33 -68 44 -82 64 -83 20 0 22 4 17 23
-7 22 -13 49 -20 90 -8 45 -11 52 -26 59 -21 9 -83 10 -78 1z m73 -50 c23 -55
14 -72 -12 -22 -19 37 -22 59 -8 59 3 0 12 -17 20 -37z"/>
</g>
</svg>
